PathFileType	4	(X/Y/Z)	/Users/itak/Documents/Research/Walk-IL/dataset/trc/00523_00183.trc
DataRate	CameraRate	NumFrames	NumMarkers	Units	OrigDataRate	OrigDataStartFrame	OrigNumFrames
100.000000	100.000000	4	56	mm	100.000000	384	512
Frame#	Time	RPSI			LPSI			L3			STRN			T10			C7			CLAV			RBAK			LBAK			LSHO			LUPA			LAEL			LAOL			LWTS			LWPS			LFRA			LHPS			LHTS			RSHO			RUPA			RAEL			RAOL			RWTS			RWPS			RFRA			RIFD			RHPS			RBHD			LFHD			RFHD			LBHD			LHIP			RHIP			RASI			LASI			LKNE			LTHI			LANK			LTIP			LTOE			LMT1			LMT5			LHEE			RKNE			RTHI			RANK			RTIP			RTOE			RMT1			RMT5			RHEE			RHTS			LIFD			*53			*54			*55			
		X1	Y1	Z1	X2	Y2	Z2	X3	Y3	Z3	X4	Y4	Z4	X5	Y5	Z5	X6	Y6	Z6	X7	Y7	Z7	X8	Y8	Z8	X9	Y9	Z9	X10	Y10	Z10	X11	Y11	Z11	X12	Y12	Z12	X13	Y13	Z13	X14	Y14	Z14	X15	Y15	Z15	X16	Y16	Z16	X17	Y17	Z17	X18	Y18	Z18	X19	Y19	Z19	X20	Y20	Z20	X21	Y21	Z21	X22	Y22	Z22	X23	Y23	Z23	X24	Y24	Z24	X25	Y25	Z25	X26	Y26	Z26	X27	Y27	Z27	X28	Y28	Z28	X29	Y29	Z29	X30	Y30	Z30	X31	Y31	Z31	X32	Y32	Z32	X33	Y33	Z33	X34	Y34	Z34	X35	Y35	Z35	X36	Y36	Z36	X37	Y37	Z37	X38	Y38	Z38	X39	Y39	Z39	X40	Y40	Z40	X41	Y41	Z41	X42	Y42	Z42	X43	Y43	Z43	X44	Y44	Z44	X45	Y45	Z45	X46	Y46	Z46	X47	Y47	Z47	X48	Y48	Z48	X49	Y49	Z49	X50	Y50	Z50	X51	Y51	Z51	X52	Y52	Z52	X53	Y53	Z53	X54	Y54	Z54	X55	Y55	Z55	X56	Y56	Z56	

385	3.84	392.7185974121094	962.3265991210938	525.2750244140625	513.5709838867188	962.5173950195312	545.9926147460938	462.7033996582031	1033.112670898438	526.7451171875	441.5889282226562	1206.748046875	739.4085693359375	460.5743408203125	1137.146484375	511.9783630371094	452.7609558105469	1369.03955078125	547.2310791015625	443.9364929199219	1301.015258789062	701.69287109375	372.6377258300781	1246.233276367188	493.8695678710938	542.3289184570312	1313.017700195312	529.5615234375	606.6956787109375	1368.833618164062	624.412109375	670.8628540039062	1244.057006835938	631.8638305664062	703.340576171875	1041.027709960938	681.96435546875	642.079833984375	1016.028137207031	607.6257934570312	662.95068359375	884.3436889648438	810.2769165039062	707.7141723632812	830.4285888671875	746.9586791992188	705.3298950195312	964.4923095703125	718.263916015625	705.3311767578125	786.4931640625	785.01611328125	684.9129028320312	813.0048828125	840.6741943359375	301.3477478027344	1364.955200195312	589.5862426757812	248.1024780273438	1298.260375976562	567.4735717773438	202.9129638671875	1034.026611328125	550.3609008789062	250.8712921142578	1015.965454101562	510.6691284179688	205.1146240234375	828.9408569335938	652.724609375	178.8984680175781	806.2726440429688	568.9703979492188	195.3415679931641	979.0175170898438	550.4367065429688	199.4476165771484	669.663330078125	650.1195068359375	173.8507232666016	735.2896118164062	589.0116577148438	347.6345825195312	1521.3603515625	608.5382080078125	509.90283203125	1596.554077148438	700.1529541015625	384.8970031738281	1585.606689453125	724.3408203125	501.3912353515625	1528.87353515625	563.8569946289062	624.7352905273438	898.7659912109375	671.8770141601562	250.2770385742188	872.4697875976562	619.3837890625	304.9082946777344	926.6680908203125	722.3280639648438	546.492431640625	935.2400512695312	751.0530395507812	564.7578735351562	481.29736328125	736.824462890625	593.5989379882812	636.9608764648438	729.7571411132812	557.1976318359375	44.24489593505859	666.9947509765625	569.0203857421875	327.52490234375	722.3291015625	472.1620178222656	35.76002883911133	858.7196655273438	449.2123413085938	44.66195678710938	777.09033203125	552.65185546875	37.16438674926758	776.051513671875	499.2871704101562	43.96203994750977	616.2421264648438	285.580810546875	494.3353881835938	708.5613403320312	247.2552947998047	746.4575805664062	665.6961669921875	278.1642761230469	67.83521270751953	600.7489013671875	283.3379516601562	351.3743896484375	706.094482421875	292.4646911621094	57.85904312133789	800.1510620117188	339.9812316894531	55.01380157470703	741.4140014648438	247.9163665771484	58.91482925415039	707.7920532226562	330.4137878417969	62.32710266113281	553.6397094726562	179.0078125	736.8377075195312	659.2806396484375	664.10107421875	732.4708862304688	855.5416870117188	nan	nan	nan	nan	nan	nan	nan	nan	nan	
386	3.85	392.3204650878906	962.0402221679688	528.2046508789062	514.517578125	962.2913818359375	549.2159423828125	462.5527038574219	1033.435302734375	530.0474853515625	442.6109313964844	1206.77685546875	742.5015258789062	461.3965454101562	1137.118530273438	515.3016357421875	453.7211608886719	1368.836791992188	550.2693481445312	444.5624389648438	1300.942993164062	704.71875	373.4905090332031	1246.203857421875	496.3287658691406	542.2376098632812	1312.987915039062	532.3851318359375	607.4988403320312	1368.738037109375	627.4039306640625	671.6754760742188	1243.934936523438	635.1346435546875	704.5527954101562	1040.940673828125	686.0174560546875	642.822509765625	1015.73193359375	611.5070190429688	662.7661743164062	885.0799560546875	815.055419921875	708.1006469726562	831.211669921875	752.3206176757812	705.9519653320312	964.7975463867188	722.749267578125	706.0346069335938	787.4078979492188	790.673583984375	685.0090942382812	814.3161010742188	845.7640380859375	302.0829467773438	1364.927124023438	592.9607543945312	248.7380981445312	1298.339111328125	571.2994995117188	203.6728668212891	1034.277954101562	553.6341552734375	250.8383636474609	1016.030883789062	514.10302734375	206.4505615234375	829.0980224609375	655.8914184570312	179.0594482421875	806.328857421875	572.8760375976562	195.9111022949219	979.0017700195312	553.984130859375	200.0945892333984	669.8853149414062	654.0339965820312	173.8750915527344	735.5820922851562	593.0249633789062	348.4818115234375	1521.39453125	612.3751220703125	510.8686218261719	1596.03515625	703.7056884765625	386.5818176269531	1585.500854492188	728.3528442382812	502.0469665527344	1528.97265625	567.3331909179688	625.8259887695312	898.8355712890625	674.6914672851562	250.1826629638672	872.2659912109375	622.953125	305.19091796875	926.6686401367188	725.9232788085938	547.70361328125	935.2965087890625	754.0584716796875	565.674072265625	481.0243225097656	738.1239624023438	594.6873168945312	636.9475708007812	731.805419921875	557.0945434570312	44.2153205871582	667.0443115234375	569.3510131835938	327.33642578125	723.2122192382812	472.1825256347656	35.71873474121094	858.7800903320312	449.2026672363281	44.62849044799805	777.1228637695312	552.6517944335938	37.16438293457031	776.0516357421875	498.934814453125	43.76865386962891	616.1453857421875	285.5689086914062	494.1677856445312	711.0875854492188	247.5838623046875	746.464599609375	668.6990356445312	277.1802062988281	64.85912322998047	612.3411254882812	284.9079895019531	350.2162475585938	711.5811767578125	297.4466247558594	59.35295867919922	811.75830078125	342.9302673339844	55.5196418762207	751.4695434570312	249.9412231445312	58.28593826293945	720.3397216796875	328.1181030273438	58.39483261108398	563.9373779296875	179.6072082519531	737.2756958007812	663.0330200195312	664.4849853515625	733.6217651367188	861.3572998046875	nan	nan	nan	nan	nan	nan	nan	nan	nan	
387	3.86	392.8673095703125	961.7378540039062	531.8251953125	514.2393188476562	962.3292846679688	552.0836181640625	462.769287109375	1033.63134765625	533.0439453125	443.3229675292969	1206.726928710938	745.5283813476562	461.1882934570312	1136.9931640625	518.314208984375	453.6258850097656	1369.369384765625	553.0726928710938	445.4220275878906	1300.8037109375	707.7821655273438	373.8922729492188	1245.9599609375	500.1687316894531	542.8572387695312	1312.905151367188	535.5551147460938	608.407470703125	1368.566162109375	629.7799072265625	672.2938232421875	1243.783935546875	637.8969116210938	704.45166015625	1041.033203125	689.5011596679688	643.7627563476562	1015.431091308594	615.2319946289062	662.7017211914062	886.1533813476562	819.4197998046875	708.664794921875	831.4981079101562	757.2373657226562	706.109130859375	965.0132446289062	726.6027221679688	706.1122436523438	788.240966796875	795.8714599609375	684.9698486328125	815.4946899414062	850.8232421875	302.9473266601562	1365.23681640625	596.3568115234375	249.4002838134766	1298.635620117188	574.5852661132812	203.5276489257812	1034.458984375	557.5248413085938	251.1381225585938	1016.232238769531	517.5411987304688	206.7616119384766	829.53955078125	660.0227661132812	178.9398803710938	806.534423828125	576.9159545898438	196.0308532714844	979.157958984375	557.7028198242188	201.1582336425781	670.069580078125	657.5507202148438	173.2879028320312	735.8153686523438	597.4536743164062	348.9589233398438	1521.4970703125	616.3558349609375	512.138427734375	1595.802368164062	706.76904296875	388.1501159667969	1585.315063476562	732.0318603515625	502.4862365722656	1529.275756835938	570.2074584960938	625.4285278320312	898.799072265625	677.2841186523438	251.3852996826172	872.3048095703125	626.39697265625	305.9501342773438	926.645263671875	729.4297485351562	547.4266357421875	935.2467041015625	756.8421020507812	566.0054321289062	480.7738952636719	739.351806640625	594.9615478515625	636.6309204101562	733.6467895507812	557.0183715820312	44.20005035400391	667.0250854492188	569.784912109375	327.1651916503906	723.7852172851562	472.1570434570312	35.69792556762695	858.7759399414062	449.2154541015625	44.59028625488281	777.1224365234375	552.6759643554688	37.17373657226562	776.0599975585938	498.7341003417969	43.69816207885742	616.1155395507812	285.5338439941406	493.9633178710938	713.794677734375	247.5986480712891	746.6065063476562	672.1192626953125	276.1116333007812	62.65189361572266	622.720458984375	285.766845703125	349.3674011230469	717.1707153320312	302.6647338867188	60.44267654418945	821.618408203125	346.0786743164062	56.10963821411133	760.05712890625	252.0948181152344	57.79704284667969	731.7799682617188	325.8252868652344	55.5555534362793	572.8242797851562	179.6831665039062	737.7693481445312	667.214599609375	664.4173583984375	734.6900634765625	866.8258056640625	nan	nan	nan	nan	nan	nan	nan	nan	nan	
388	3.87	392.2125244140625	961.7982788085938	535.3773193359375	514.06689453125	962.3086547851562	554.7730712890625	462.9080505371094	1034.094604492188	535.8087158203125	444.2171325683594	1206.614624023438	748.3377685546875	461.2925415039062	1136.918212890625	521.3203125	454.1974182128906	1369.045043945312	556.2786865234375	446.0437316894531	1300.917114257812	710.6683959960938	373.5820007324219	1246.134399414062	503.2908325195312	543.2291870117188	1312.7255859375	537.8692626953125	608.9859008789062	1368.46142578125	632.2926025390625	672.7357788085938	1243.522827148438	640.246337890625	705.0787963867188	1040.897705078125	692.84130859375	643.949462890625	1015.009033203125	618.4239501953125	663.2210693359375	886.9652099609375	823.3803100585938	709.0633544921875	832.2880249023438	761.8189697265625	706.7431640625	965.3479614257812	730.2753295898438	706.6632690429688	788.9177856445312	800.6659545898438	685.5679321289062	816.5381469726562	855.5852661132812	303.3880310058594	1365.402954101562	599.5926513671875	249.6252593994141	1298.576782226562	578.2506103515625	203.9231872558594	1034.623046875	561.3953857421875	251.0032806396484	1016.229370117188	521.2789916992188	207.3217468261719	829.6934814453125	663.8968505859375	179.3424835205078	806.861572265625	580.6442260742188	195.4252166748047	979.2946166992188	562.0379638671875	202.3676452636719	670.2777099609375	660.8975219726562	173.6498565673828	735.7615356445312	601.3538818359375	348.9375915527344	1521.387573242188	620.2943725585938	513.38671875	1595.598754882812	709.8551635742188	388.7040710449219	1585.029174804688	735.8553466796875	502.7137145996094	1529.2998046875	573.275634765625	626.0822143554688	898.6925048828125	679.9268798828125	249.8338928222656	872.9083862304688	631.0731201171875	306.3739929199219	926.7825317382812	732.7225341796875	548.2007446289062	935.1267700195312	759.6758422851562	566.3009643554688	480.4664916992188	740.3875122070312	595.6925659179688	636.3560180664062	735.539794921875	556.9934692382812	44.25732421875	667.0107421875	570.0928344726562	327.1273193359375	724.332275390625	472.2354736328125	35.72410583496094	858.81005859375	449.2161560058594	44.58999252319336	777.1221313476562	552.6770629882812	37.17424392700195	776.0601196289062	498.7752075195312	43.76615524291992	616.12841796875	285.411376953125	494.0356750488281	716.6762084960938	247.1134185791016	746.7733764648438	675.9008178710938	275.3257141113281	60.76534652709961	631.6290893554688	286.1801452636719	349.1505126953125	722.6126098632812	307.9917907714844	61.23016738891602	829.9188232421875	349.2530212402344	56.22057342529297	766.8811645507812	254.8199920654297	57.18108749389648	741.6189575195312	323.4588012695312	52.99680328369141	580.7147827148438	181.3425750732422	737.7758178710938	670.8152465820312	664.482177734375	736.0281982421875	871.76171875	nan	nan	nan	nan	nan	nan	nan	nan	nan	
